# xmcd
#
# Track frame offsets: 
#        150
#        24895
#        50170
#        86918
#        118246
#        149297
#        170530
#
# Disc length: 2502 seconds
#
# Revision: 1
# Processed by: cddbd v1.5.2PL0 Copyright (c) Steve Scherf et al.
# Submitted via: ExactAudioCopy v0.95a4
#
DISCID=6009c407
DTITLE=Various Artist - Soul Fixin' Live From TX [CD1]
DYEAR=2007
DGENRE=Blues
TTITLE0=The Tommy Castro Band with Jimmy Hall - Mammer Jammer
TTITLE1=The Tommy Castro Band with Jimmy Hall - Crosscut Saw
TTITLE2=The Tommy Castro Band with Jimmy Hall - Long Distance Call
TTITLE3=The Tommy Castro Band with Jimmy Hall - Whole Lotta Soul
TTITLE4=The Tommy Castro Band with Jimmy Hall - Too Tall To Mambo
TTITLE5=The Tommy Castro Band with Jimmy Hall - Crawfishin'
TTITLE6=The Tommy Castro Band with Junior Watson, Jimmy Hall and Albert 
TTITLE6=Cummings - I Feel, I Feel
EXTD=
EXTT0=
EXTT1=
EXTT2=
EXTT3=
EXTT4=
EXTT5=
EXTT6=
PLAYORDER=
